<?xml version="1.0" encoding="UTF-8" standalone="no"?>
<!-- Created with Inkscape (http://www.inkscape.org/) -->

<svg
   xmlns:dc="http://purl.org/dc/elements/1.1/"
   xmlns:cc="http://creativecommons.org/ns#"
   xmlns:rdf="http://www.w3.org/1999/02/22-rdf-syntax-ns#"
   xmlns:svg="http://www.w3.org/2000/svg"
   xmlns="http://www.w3.org/2000/svg"
   xmlns:sodipodi="http://sodipodi.sourceforge.net/DTD/sodipodi-0.dtd"
   xmlns:inkscape="http://www.inkscape.org/namespaces/inkscape"
   width="696"
   height="1008"
   viewBox="0 0 184.15 266.7"
   version="1.1"
   id="svg12703"
   inkscape:version="0.92.3 (2405546, 2018-03-11)"
   sodipodi:docname="virermoitoutca.svg">
  <defs
     id="defs12697" />
  <sodipodi:namedview
     id="base"
     pagecolor="#ffffff"
     bordercolor="#666666"
     borderopacity="1.0"
     inkscape:pageopacity="0.0"
     inkscape:pageshadow="2"
     inkscape:zoom="1.1416016"
     inkscape:cx="163.43821"
     inkscape:cy="548.28166"
     inkscape:document-units="px"
     inkscape:current-layer="layer1"
     showgrid="true"
     inkscape:window-width="1920"
     inkscape:window-height="1021"
     inkscape:window-x="0"
     inkscape:window-y="0"
     inkscape:window-maximized="1"
     units="px"
     inkscape:pagecheckerboard="true"
     showborder="false"
     objecttolerance="10000"
     inkscape:snap-path-clip="true"
     inkscape:snap-path-mask="true"
     inkscape:snap-perpendicular="true"
     inkscape:snap-tangential="true"
     inkscape:snap-bbox="true"
     inkscape:bbox-nodes="true"
     inkscape:snap-bbox-edge-midpoints="true"
     inkscape:snap-bbox-midpoints="true">
    <inkscape:grid
       type="xygrid"
       id="grid13248"
       spacingx="1.0583333"
       spacingy="1.0583333" />
  </sodipodi:namedview>
  <metadata
     id="metadata12700">
    <rdf:RDF>
      <cc:Work
         rdf:about="">
        <dc:format>image/svg+xml</dc:format>
        <dc:type
           rdf:resource="http://purl.org/dc/dcmitype/StillImage" />
        <dc:title></dc:title>
      </cc:Work>
    </rdf:RDF>
  </metadata>
  <g
     inkscape:label="Calque 1"
     inkscape:groupmode="layer"
     id="layer1"
     transform="translate(0,-30.3)">
    <rect
       style="opacity:1;fill:#accdd8;fill-opacity:1;fill-rule:nonzero;stroke:none;stroke-width:0.50583804;stroke-linecap:round;stroke-linejoin:round;stroke-miterlimit:4;stroke-dasharray:none;stroke-dashoffset:0;stroke-opacity:1;paint-order:normal"
       id="rect13250"
       width="137.58333"
       height="77.366066"
       x="-23.283333"
       y="95.916664" />
    <rect
       style="opacity:1;fill:#f4f8fa;fill-opacity:1;fill-rule:nonzero;stroke:none;stroke-width:0.52916664;stroke-linecap:round;stroke-linejoin:round;stroke-miterlimit:4;stroke-dasharray:none;stroke-dashoffset:0;stroke-opacity:1;paint-order:normal"
       id="rect13252"
       width="42.333332"
       height="63.5"
       x="0"
       y="106.5"
       ry="2.1166637" />
    <path
       style="color:#000000;font-style:normal;font-variant:normal;font-weight:normal;font-stretch:normal;font-size:medium;line-height:normal;font-family:sans-serif;font-variant-ligatures:normal;font-variant-position:normal;font-variant-caps:normal;font-variant-numeric:normal;font-variant-alternates:normal;font-feature-settings:normal;text-indent:0;text-align:start;text-decoration:none;text-decoration-line:none;text-decoration-style:solid;text-decoration-color:#000000;letter-spacing:normal;word-spacing:normal;text-transform:none;writing-mode:lr-tb;direction:ltr;text-orientation:mixed;dominant-baseline:auto;baseline-shift:baseline;text-anchor:start;white-space:normal;shape-padding:0;clip-rule:nonzero;display:inline;overflow:visible;visibility:visible;opacity:1;isolation:auto;mix-blend-mode:normal;color-interpolation:sRGB;color-interpolation-filters:linearRGB;solid-color:#000000;solid-opacity:1;vector-effect:none;fill:#393e46;fill-opacity:1;fill-rule:nonzero;stroke:none;stroke-width:1.99999988;stroke-linecap:round;stroke-linejoin:round;stroke-miterlimit:4;stroke-dasharray:none;stroke-dashoffset:0;stroke-opacity:1;paint-order:normal;color-rendering:auto;image-rendering:auto;shape-rendering:auto;text-rendering:auto;enable-background:accumulate"
       d="M 15.900391 278.75781 C 14.027262 278.75781 12.400708 279.90282 11.308594 281.54102 C 10.216479 283.17918 9.5898438 285.35252 9.5898438 287.73438 C 9.5898438 290.1162 10.216479 292.28172 11.308594 293.91992 C 12.400708 295.55808 14.027262 296.70312 15.900391 296.70312 C 15.934128 296.70312 15.966424 296.69605 16 296.69531 L 16 294.69531 C 15.966692 294.69658 15.933755 294.70312 15.900391 294.70312 C 14.837923 294.70312 13.808232 294.06001 12.976562 292.8125 C 12.144892 291.56499 11.582031 289.75593 11.582031 287.73438 C 11.582031 285.71282 12.144892 283.89595 12.976562 282.64844 C 13.808232 281.40097 14.837923 280.75781 15.900391 280.75781 C 16.962859 280.75781 18.000361 281.40097 18.832031 282.64844 C 19.663702 283.89595 20.21875 285.71282 20.21875 287.73438 C 20.21875 287.82411 20.211152 287.91113 20.208984 288 L 22.208984 288 C 22.210772 287.91103 22.21875 287.82397 22.21875 287.73438 C 22.21875 285.35252 21.584302 283.17918 20.492188 281.54102 C 19.400073 279.90282 17.773519 278.75781 15.900391 278.75781 z "
       transform="matrix(0.26458333,0,0,0.26458333,0,30.3)"
       id="path13254" />
    <path
       style="color:#000000;font-style:normal;font-variant:normal;font-weight:normal;font-stretch:normal;font-size:medium;line-height:normal;font-family:sans-serif;font-variant-ligatures:normal;font-variant-position:normal;font-variant-caps:normal;font-variant-numeric:normal;font-variant-alternates:normal;font-feature-settings:normal;text-indent:0;text-align:start;text-decoration:none;text-decoration-line:none;text-decoration-style:solid;text-decoration-color:#000000;letter-spacing:normal;word-spacing:normal;text-transform:none;writing-mode:lr-tb;direction:ltr;text-orientation:mixed;dominant-baseline:auto;baseline-shift:baseline;text-anchor:start;white-space:normal;shape-padding:0;clip-rule:nonzero;display:inline;overflow:visible;visibility:visible;opacity:1;isolation:auto;mix-blend-mode:normal;color-interpolation:sRGB;color-interpolation-filters:linearRGB;solid-color:#000000;solid-opacity:1;vector-effect:none;fill:#393e46;fill-opacity:1;fill-rule:nonzero;stroke:none;stroke-width:0.52916664;stroke-linecap:round;stroke-linejoin:round;stroke-miterlimit:4;stroke-dasharray:none;stroke-dashoffset:0;stroke-opacity:1;paint-order:normal;color-rendering:auto;image-rendering:auto;shape-rendering:auto;text-rendering:auto;enable-background:accumulate"
       d="m 8.4666668,104.05467 c -0.4955987,0 -0.9259578,0.30295 -1.2149129,0.73639 -0.2889555,0.43343 -0.4547527,1.00846 -0.4547527,1.63866 0,0.63019 0.1657972,1.20315 0.4547527,1.63659 0.2889551,0.43343 0.7193142,0.73639 1.2149129,0.73639 0.00893,0 0.017471,-0.002 0.026355,-0.002 v -0.52916 c -0.00881,3.3e-4 -0.017527,0.002 -0.026355,0.002 -0.2811113,0 -0.5535504,-0.17015 -0.7735964,-0.50022 -0.220046,-0.33007 -0.3689697,-0.80872 -0.3689697,-1.34359 0,-0.53487 0.1489237,-1.01558 0.3689697,-1.34565 0.220046,-0.33006 0.4924851,-0.50023 0.7735964,-0.50023 0.2811113,0 0.5556171,0.17017 0.7756631,0.50023 0.2200463,0.33007 0.3669027,0.81078 0.3669027,1.34565 0,0.0237 -0.00201,0.0468 -0.00258,0.0703 h 0.5291664 c 4.73e-4,-0.0235 0.0026,-0.0466 0.0026,-0.0703 0,-0.6302 -0.1678642,-1.20523 -0.4568194,-1.63866 -0.2889554,-0.43344 -0.7193145,-0.73639 -1.2149129,-0.73639 z"
       id="path13264"
       inkscape:connector-curvature="0" />
    <path
       style="color:#000000;font-style:normal;font-variant:normal;font-weight:normal;font-stretch:normal;font-size:medium;line-height:normal;font-family:sans-serif;font-variant-ligatures:normal;font-variant-position:normal;font-variant-caps:normal;font-variant-numeric:normal;font-variant-alternates:normal;font-feature-settings:normal;text-indent:0;text-align:start;text-decoration:none;text-decoration-line:none;text-decoration-style:solid;text-decoration-color:#000000;letter-spacing:normal;word-spacing:normal;text-transform:none;writing-mode:lr-tb;direction:ltr;text-orientation:mixed;dominant-baseline:auto;baseline-shift:baseline;text-anchor:start;white-space:normal;shape-padding:0;clip-rule:nonzero;display:inline;overflow:visible;visibility:visible;opacity:1;isolation:auto;mix-blend-mode:normal;color-interpolation:sRGB;color-interpolation-filters:linearRGB;solid-color:#000000;solid-opacity:1;vector-effect:none;fill:#393e46;fill-opacity:1;fill-rule:nonzero;stroke:none;stroke-width:0.52916664;stroke-linecap:round;stroke-linejoin:round;stroke-miterlimit:4;stroke-dasharray:none;stroke-dashoffset:0;stroke-opacity:1;paint-order:normal;color-rendering:auto;image-rendering:auto;shape-rendering:auto;text-rendering:auto;enable-background:accumulate"
       d="m 12.7,104.05467 c -0.495599,0 -0.925958,0.30295 -1.214913,0.73639 -0.288955,0.43343 -0.454752,1.00846 -0.454752,1.63866 0,0.63019 0.165797,1.20315 0.454752,1.63659 0.288955,0.43343 0.719314,0.73639 1.214913,0.73639 0.0089,0 0.01747,-0.002 0.02636,-0.002 v -0.52916 c -0.0088,3.3e-4 -0.01753,0.002 -0.02636,0.002 -0.281111,0 -0.55355,-0.17015 -0.773596,-0.50022 -0.220046,-0.33007 -0.36897,-0.80872 -0.36897,-1.34359 0,-0.53487 0.148924,-1.01558 0.36897,-1.34565 0.220046,-0.33006 0.492485,-0.50023 0.773596,-0.50023 0.281112,0 0.555617,0.17017 0.775663,0.50023 0.220047,0.33007 0.366903,0.81078 0.366903,1.34565 0,0.0237 -0.002,0.0468 -0.0026,0.0703 h 0.529167 c 4.73e-4,-0.0235 0.0026,-0.0466 0.0026,-0.0703 0,-0.6302 -0.167865,-1.20523 -0.45682,-1.63866 -0.288955,-0.43344 -0.719314,-0.73639 -1.214913,-0.73639 z"
       id="path13266"
       inkscape:connector-curvature="0" />
    <path
       style="color:#000000;font-style:normal;font-variant:normal;font-weight:normal;font-stretch:normal;font-size:medium;line-height:normal;font-family:sans-serif;font-variant-ligatures:normal;font-variant-position:normal;font-variant-caps:normal;font-variant-numeric:normal;font-variant-alternates:normal;font-feature-settings:normal;text-indent:0;text-align:start;text-decoration:none;text-decoration-line:none;text-decoration-style:solid;text-decoration-color:#000000;letter-spacing:normal;word-spacing:normal;text-transform:none;writing-mode:lr-tb;direction:ltr;text-orientation:mixed;dominant-baseline:auto;baseline-shift:baseline;text-anchor:start;white-space:normal;shape-padding:0;clip-rule:nonzero;display:inline;overflow:visible;visibility:visible;opacity:1;isolation:auto;mix-blend-mode:normal;color-interpolation:sRGB;color-interpolation-filters:linearRGB;solid-color:#000000;solid-opacity:1;vector-effect:none;fill:#393e46;fill-opacity:1;fill-rule:nonzero;stroke:none;stroke-width:0.52916664;stroke-linecap:round;stroke-linejoin:round;stroke-miterlimit:4;stroke-dasharray:none;stroke-dashoffset:0;stroke-opacity:1;paint-order:normal;color-rendering:auto;image-rendering:auto;shape-rendering:auto;text-rendering:auto;enable-background:accumulate"
       d="m 16.933334,104.05467 c -0.495599,0 -0.925958,0.30295 -1.214913,0.73639 -0.288956,0.43343 -0.454753,1.00846 -0.454753,1.63866 0,0.63019 0.165797,1.20315 0.454753,1.63659 0.288955,0.43343 0.719314,0.73639 1.214913,0.73639 0.0089,0 0.01747,-0.002 0.02635,-0.002 v -0.52916 c -0.0088,3.3e-4 -0.01753,0.002 -0.02635,0.002 -0.281112,0 -0.553551,-0.17015 -0.773597,-0.50022 -0.220046,-0.33007 -0.368969,-0.80872 -0.368969,-1.34359 0,-0.53487 0.148923,-1.01558 0.368969,-1.34565 0.220046,-0.33006 0.492485,-0.50023 0.773597,-0.50023 0.281111,0 0.555617,0.17017 0.775663,0.50023 0.220046,0.33007 0.366902,0.81078 0.366902,1.34565 0,0.0237 -0.002,0.0468 -0.0026,0.0703 h 0.529167 c 4.73e-4,-0.0235 0.0026,-0.0466 0.0026,-0.0703 0,-0.6302 -0.167864,-1.20523 -0.456819,-1.63866 -0.288956,-0.43344 -0.719315,-0.73639 -1.214913,-0.73639 z"
       id="path13268"
       inkscape:connector-curvature="0" />
    <path
       style="color:#000000;font-style:normal;font-variant:normal;font-weight:normal;font-stretch:normal;font-size:medium;line-height:normal;font-family:sans-serif;font-variant-ligatures:normal;font-variant-position:normal;font-variant-caps:normal;font-variant-numeric:normal;font-variant-alternates:normal;font-feature-settings:normal;text-indent:0;text-align:start;text-decoration:none;text-decoration-line:none;text-decoration-style:solid;text-decoration-color:#000000;letter-spacing:normal;word-spacing:normal;text-transform:none;writing-mode:lr-tb;direction:ltr;text-orientation:mixed;dominant-baseline:auto;baseline-shift:baseline;text-anchor:start;white-space:normal;shape-padding:0;clip-rule:nonzero;display:inline;overflow:visible;visibility:visible;opacity:1;isolation:auto;mix-blend-mode:normal;color-interpolation:sRGB;color-interpolation-filters:linearRGB;solid-color:#000000;solid-opacity:1;vector-effect:none;fill:#393e46;fill-opacity:1;fill-rule:nonzero;stroke:none;stroke-width:0.52916664;stroke-linecap:round;stroke-linejoin:round;stroke-miterlimit:4;stroke-dasharray:none;stroke-dashoffset:0;stroke-opacity:1;paint-order:normal;color-rendering:auto;image-rendering:auto;shape-rendering:auto;text-rendering:auto;enable-background:accumulate"
       d="m 21.166667,104.05467 c -0.495599,0 -0.925958,0.30295 -1.214913,0.73639 -0.288955,0.43343 -0.454753,1.00846 -0.454753,1.63866 0,0.63019 0.165798,1.20315 0.454753,1.63659 0.288955,0.43343 0.719314,0.73639 1.214913,0.73639 0.0089,0 0.01747,-0.002 0.02635,-0.002 v -0.52916 c -0.0088,3.3e-4 -0.01753,0.002 -0.02635,0.002 -0.281111,0 -0.55355,-0.17015 -0.773596,-0.50022 -0.220046,-0.33007 -0.36897,-0.80872 -0.36897,-1.34359 0,-0.53487 0.148924,-1.01558 0.36897,-1.34565 0.220046,-0.33006 0.492485,-0.50023 0.773596,-0.50023 0.281111,0 0.555617,0.17017 0.775663,0.50023 0.220046,0.33007 0.366903,0.81078 0.366903,1.34565 0,0.0237 -0.002,0.0468 -0.0026,0.0703 H 22.8358 c 4.73e-4,-0.0235 0.0026,-0.0466 0.0026,-0.0703 0,-0.6302 -0.167864,-1.20523 -0.456819,-1.63866 -0.288955,-0.43344 -0.719315,-0.73639 -1.214913,-0.73639 z"
       id="path13270"
       inkscape:connector-curvature="0" />
    <path
       style="color:#000000;font-style:normal;font-variant:normal;font-weight:normal;font-stretch:normal;font-size:medium;line-height:normal;font-family:sans-serif;font-variant-ligatures:normal;font-variant-position:normal;font-variant-caps:normal;font-variant-numeric:normal;font-variant-alternates:normal;font-feature-settings:normal;text-indent:0;text-align:start;text-decoration:none;text-decoration-line:none;text-decoration-style:solid;text-decoration-color:#000000;letter-spacing:normal;word-spacing:normal;text-transform:none;writing-mode:lr-tb;direction:ltr;text-orientation:mixed;dominant-baseline:auto;baseline-shift:baseline;text-anchor:start;white-space:normal;shape-padding:0;clip-rule:nonzero;display:inline;overflow:visible;visibility:visible;opacity:1;isolation:auto;mix-blend-mode:normal;color-interpolation:sRGB;color-interpolation-filters:linearRGB;solid-color:#000000;solid-opacity:1;vector-effect:none;fill:#393e46;fill-opacity:1;fill-rule:nonzero;stroke:none;stroke-width:0.52916664;stroke-linecap:round;stroke-linejoin:round;stroke-miterlimit:4;stroke-dasharray:none;stroke-dashoffset:0;stroke-opacity:1;paint-order:normal;color-rendering:auto;image-rendering:auto;shape-rendering:auto;text-rendering:auto;enable-background:accumulate"
       d="m 25.4,104.05467 c -0.495598,0 -0.925957,0.30295 -1.214913,0.73639 -0.288955,0.43343 -0.454752,1.00846 -0.454752,1.63866 0,0.63019 0.165797,1.20315 0.454752,1.63659 0.288956,0.43343 0.719315,0.73639 1.214913,0.73639 0.0089,0 0.01747,-0.002 0.02636,-0.002 v -0.52916 c -0.0088,3.3e-4 -0.01753,0.002 -0.02636,0.002 -0.281111,0 -0.55355,-0.17015 -0.773596,-0.50022 -0.220046,-0.33007 -0.36897,-0.80872 -0.36897,-1.34359 0,-0.53487 0.148924,-1.01558 0.36897,-1.34565 0.220046,-0.33006 0.492485,-0.50023 0.773596,-0.50023 0.281112,0 0.555617,0.17017 0.775663,0.50023 0.220047,0.33007 0.366903,0.81078 0.366903,1.34565 0,0.0237 -0.002,0.0468 -0.0026,0.0703 h 0.529167 c 4.73e-4,-0.0235 0.0026,-0.0466 0.0026,-0.0703 0,-0.6302 -0.167865,-1.20523 -0.45682,-1.63866 -0.288955,-0.43344 -0.719314,-0.73639 -1.214913,-0.73639 z"
       id="path13272"
       inkscape:connector-curvature="0" />
    <path
       style="color:#000000;font-style:normal;font-variant:normal;font-weight:normal;font-stretch:normal;font-size:medium;line-height:normal;font-family:sans-serif;font-variant-ligatures:normal;font-variant-position:normal;font-variant-caps:normal;font-variant-numeric:normal;font-variant-alternates:normal;font-feature-settings:normal;text-indent:0;text-align:start;text-decoration:none;text-decoration-line:none;text-decoration-style:solid;text-decoration-color:#000000;letter-spacing:normal;word-spacing:normal;text-transform:none;writing-mode:lr-tb;direction:ltr;text-orientation:mixed;dominant-baseline:auto;baseline-shift:baseline;text-anchor:start;white-space:normal;shape-padding:0;clip-rule:nonzero;display:inline;overflow:visible;visibility:visible;opacity:1;isolation:auto;mix-blend-mode:normal;color-interpolation:sRGB;color-interpolation-filters:linearRGB;solid-color:#000000;solid-opacity:1;vector-effect:none;fill:#393e46;fill-opacity:1;fill-rule:nonzero;stroke:none;stroke-width:0.52916664;stroke-linecap:round;stroke-linejoin:round;stroke-miterlimit:4;stroke-dasharray:none;stroke-dashoffset:0;stroke-opacity:1;paint-order:normal;color-rendering:auto;image-rendering:auto;shape-rendering:auto;text-rendering:auto;enable-background:accumulate"
       d="m 29.633334,104.05467 c -0.495599,0 -0.925958,0.30295 -1.214913,0.73639 -0.288956,0.43343 -0.454753,1.00846 -0.454753,1.63866 0,0.63019 0.165797,1.20315 0.454753,1.63659 0.288955,0.43343 0.719314,0.73639 1.214913,0.73639 0.0089,0 0.01747,-0.002 0.02635,-0.002 v -0.52916 c -0.0088,3.3e-4 -0.01753,0.002 -0.02635,0.002 -0.281112,0 -0.553551,-0.17015 -0.773597,-0.50022 -0.220046,-0.33007 -0.368969,-0.80872 -0.368969,-1.34359 0,-0.53487 0.148923,-1.01558 0.368969,-1.34565 0.220046,-0.33006 0.492485,-0.50023 0.773597,-0.50023 0.281111,0 0.555617,0.17017 0.775663,0.50023 0.220046,0.33007 0.366903,0.81078 0.366903,1.34565 0,0.0237 -0.002,0.0468 -0.0026,0.0703 h 0.529166 c 4.73e-4,-0.0235 0.0026,-0.0466 0.0026,-0.0703 0,-0.6302 -0.167864,-1.20523 -0.456819,-1.63866 -0.288956,-0.43344 -0.719315,-0.73639 -1.214913,-0.73639 z"
       id="path13274"
       inkscape:connector-curvature="0" />
    <path
       style="color:#000000;font-style:normal;font-variant:normal;font-weight:normal;font-stretch:normal;font-size:medium;line-height:normal;font-family:sans-serif;font-variant-ligatures:normal;font-variant-position:normal;font-variant-caps:normal;font-variant-numeric:normal;font-variant-alternates:normal;font-feature-settings:normal;text-indent:0;text-align:start;text-decoration:none;text-decoration-line:none;text-decoration-style:solid;text-decoration-color:#000000;letter-spacing:normal;word-spacing:normal;text-transform:none;writing-mode:lr-tb;direction:ltr;text-orientation:mixed;dominant-baseline:auto;baseline-shift:baseline;text-anchor:start;white-space:normal;shape-padding:0;clip-rule:nonzero;display:inline;overflow:visible;visibility:visible;opacity:1;isolation:auto;mix-blend-mode:normal;color-interpolation:sRGB;color-interpolation-filters:linearRGB;solid-color:#000000;solid-opacity:1;vector-effect:none;fill:#393e46;fill-opacity:1;fill-rule:nonzero;stroke:none;stroke-width:0.52916664;stroke-linecap:round;stroke-linejoin:round;stroke-miterlimit:4;stroke-dasharray:none;stroke-dashoffset:0;stroke-opacity:1;paint-order:normal;color-rendering:auto;image-rendering:auto;shape-rendering:auto;text-rendering:auto;enable-background:accumulate"
       d="m 33.866667,104.05467 c -0.495599,0 -0.925958,0.30295 -1.214913,0.73639 -0.288955,0.43343 -0.454752,1.00846 -0.454752,1.63866 0,0.63019 0.165797,1.20315 0.454752,1.63659 0.288955,0.43343 0.719314,0.73639 1.214913,0.73639 0.0089,0 0.01747,-0.002 0.02636,-0.002 v -0.52916 c -0.0088,3.3e-4 -0.01753,0.002 -0.02636,0.002 -0.281111,0 -0.55355,-0.17015 -0.773596,-0.50022 -0.220046,-0.33007 -0.36897,-0.80872 -0.36897,-1.34359 0,-0.53487 0.148924,-1.01558 0.36897,-1.34565 0.220046,-0.33006 0.492485,-0.50023 0.773596,-0.50023 0.281112,0 0.555617,0.17017 0.775663,0.50023 0.220047,0.33007 0.366903,0.81078 0.366903,1.34565 0,0.0237 -0.002,0.0468 -0.0026,0.0703 H 35.5358 c 4.73e-4,-0.0235 0.0026,-0.0466 0.0026,-0.0703 0,-0.6302 -0.167865,-1.20523 -0.45682,-1.63866 -0.288955,-0.43344 -0.719314,-0.73639 -1.214913,-0.73639 z"
       id="path13276"
       inkscape:connector-curvature="0" />
    <path
       id="path13262"
       d="m 38.100001,104.05467 c -0.495599,0 -0.925958,0.30295 -1.214913,0.73639 -0.288956,0.43343 -0.454753,1.00846 -0.454753,1.63866 0,0.63019 0.165797,1.20315 0.454753,1.63659 0.288955,0.43343 0.719314,0.73639 1.214913,0.73639 0.0089,0 0.01747,-0.002 0.02635,-0.002 v -0.52916 c -0.0088,3.3e-4 -0.01753,0.002 -0.02635,0.002 -0.281112,0 -0.553551,-0.17015 -0.773597,-0.50022 -0.220046,-0.33007 -0.368969,-0.80872 -0.368969,-1.34359 0,-0.53487 0.148923,-1.01558 0.368969,-1.34565 0.220046,-0.33006 0.492485,-0.50023 0.773597,-0.50023 0.281111,0 0.555617,0.17017 0.775663,0.50023 0.220046,0.33007 0.366902,0.81078 0.366902,1.34565 0,0.0237 -0.002,0.0468 -0.0026,0.0703 h 0.529167 c 4.73e-4,-0.0235 0.0026,-0.0466 0.0026,-0.0703 0,-0.6302 -0.167864,-1.20523 -0.456819,-1.63866 -0.288956,-0.43344 -0.719315,-0.73639 -1.214913,-0.73639 z"
       style="color:#000000;font-style:normal;font-variant:normal;font-weight:normal;font-stretch:normal;font-size:medium;line-height:normal;font-family:sans-serif;font-variant-ligatures:normal;font-variant-position:normal;font-variant-caps:normal;font-variant-numeric:normal;font-variant-alternates:normal;font-feature-settings:normal;text-indent:0;text-align:start;text-decoration:none;text-decoration-line:none;text-decoration-style:solid;text-decoration-color:#000000;letter-spacing:normal;word-spacing:normal;text-transform:none;writing-mode:lr-tb;direction:ltr;text-orientation:mixed;dominant-baseline:auto;baseline-shift:baseline;text-anchor:start;white-space:normal;shape-padding:0;clip-rule:nonzero;display:inline;overflow:visible;visibility:visible;opacity:1;isolation:auto;mix-blend-mode:normal;color-interpolation:sRGB;color-interpolation-filters:linearRGB;solid-color:#000000;solid-opacity:1;vector-effect:none;fill:#393e46;fill-opacity:1;fill-rule:nonzero;stroke:none;stroke-width:0.52916664;stroke-linecap:round;stroke-linejoin:round;stroke-miterlimit:4;stroke-dasharray:none;stroke-dashoffset:0;stroke-opacity:1;paint-order:normal;color-rendering:auto;image-rendering:auto;shape-rendering:auto;text-rendering:auto;enable-background:accumulate"
       inkscape:connector-curvature="0" />
    <path
       style="color:#000000;font-style:normal;font-variant:normal;font-weight:normal;font-stretch:normal;font-size:medium;line-height:normal;font-family:sans-serif;font-variant-ligatures:normal;font-variant-position:normal;font-variant-caps:normal;font-variant-numeric:normal;font-variant-alternates:normal;font-feature-settings:normal;text-indent:0;text-align:start;text-decoration:none;text-decoration-line:none;text-decoration-style:solid;text-decoration-color:#000000;letter-spacing:normal;word-spacing:normal;text-transform:none;writing-mode:lr-tb;direction:ltr;text-orientation:mixed;dominant-baseline:auto;baseline-shift:baseline;text-anchor:start;white-space:normal;shape-padding:0;clip-rule:nonzero;display:inline;overflow:visible;visibility:visible;opacity:1;isolation:auto;mix-blend-mode:normal;color-interpolation:sRGB;color-interpolation-filters:linearRGB;solid-color:#000000;solid-opacity:1;vector-effect:none;fill:#393e46;fill-opacity:1;fill-rule:nonzero;stroke:none;stroke-width:0.26458332;stroke-linecap:round;stroke-linejoin:round;stroke-miterlimit:4;stroke-dasharray:none;stroke-dashoffset:0;stroke-opacity:1;paint-order:normal;color-rendering:auto;image-rendering:auto;shape-rendering:auto;text-rendering:auto;enable-background:accumulate"
       d="m 21.033858,122.37501 v 16.93332 c 0,0.51532 -0.410722,0.92604 -0.926042,0.92604 H 2.1166666 v 0.26355 H 20.107816 c 0.657322,0 1.191659,-0.53226 1.191659,-1.18959 v -16.93332 z"
       id="rect13278"
       inkscape:connector-curvature="0"
       sodipodi:nodetypes="cssccsscc" />
    <path
       style="color:#000000;font-style:normal;font-variant:normal;font-weight:normal;font-stretch:normal;font-size:medium;line-height:normal;font-family:sans-serif;font-variant-ligatures:normal;font-variant-position:normal;font-variant-caps:normal;font-variant-numeric:normal;font-variant-alternates:normal;font-feature-settings:normal;text-indent:0;text-align:start;text-decoration:none;text-decoration-line:none;text-decoration-style:solid;text-decoration-color:#000000;letter-spacing:normal;word-spacing:normal;text-transform:none;writing-mode:lr-tb;direction:ltr;text-orientation:mixed;dominant-baseline:auto;baseline-shift:baseline;text-anchor:start;white-space:normal;shape-padding:0;clip-rule:nonzero;display:inline;overflow:visible;visibility:visible;opacity:1;isolation:auto;mix-blend-mode:normal;color-interpolation:sRGB;color-interpolation-filters:linearRGB;solid-color:#000000;solid-opacity:1;vector-effect:none;fill:#393e46;fill-opacity:1;fill-rule:nonzero;stroke:none;stroke-width:0.26458332;stroke-linecap:round;stroke-linejoin:round;stroke-miterlimit:4;stroke-dasharray:none;stroke-dashoffset:0;stroke-opacity:1;paint-order:normal;color-rendering:auto;image-rendering:auto;shape-rendering:auto;text-rendering:auto;enable-background:accumulate"
       d="m 21.033858,147.775 v 6.35 h 0.265617 v -6.35 z"
       id="rect13288"
       inkscape:connector-curvature="0"
       sodipodi:nodetypes="ccccc" />
    <text
       xml:space="preserve"
       style="font-style:normal;font-weight:normal;font-size:5.00569773px;line-height:1;font-family:sans-serif;text-align:center;letter-spacing:0px;word-spacing:0px;text-anchor:middle;fill:#12171e;fill-opacity:1;stroke:none;stroke-width:0.26458332px;stroke-linecap:butt;stroke-linejoin:miter;stroke-opacity:1;"
       x="21.227829"
       y="113.78891"
       id="text13302"><tspan
         sodipodi:role="line"
         id="tspan13300"
         x="21.227829"
         y="113.78891"
         style="font-style:normal;font-variant:normal;font-weight:normal;font-stretch:normal;font-family:'Noto Sans';-inkscape-font-specification:'Noto Sans';stroke-width:0.26458332px;fill:#12171e;">BILAN</tspan><tspan
         sodipodi:role="line"
         x="21.227829"
         y="118.9203"
         style="font-style:normal;font-variant:normal;font-weight:normal;font-stretch:normal;font-family:'Noto Sans';-inkscape-font-specification:'Noto Sans';stroke-width:0.26458332px;fill:#12171e;"
         id="tspan13304">ANNUEL</tspan></text>
    <text
       xml:space="preserve"
       style="font-style:normal;font-weight:normal;font-size:1.93879938px;line-height:1;font-family:sans-serif;text-align:start;letter-spacing:0px;word-spacing:0px;text-anchor:start;fill:#000000;fill-opacity:1;stroke:none;stroke-width:0.26458332px;stroke-linecap:butt;stroke-linejoin:miter;stroke-opacity:1"
       x="1.9898115"
       y="125.20058"
       id="text13308"><tspan
         sodipodi:role="line"
         id="tspan13306"
         x="1.9898115"
         y="125.20058"
         style="font-size:1.29253304px;text-align:start;text-anchor:start;stroke-width:0.26458332px">Masse salariale...........15K $</tspan><tspan
         sodipodi:role="line"
         x="1.9898115"
         y="127.13937"
         style="font-size:1.29253304px;text-align:start;text-anchor:start;stroke-width:0.26458332px"
         id="tspan13316">Dépense fournitures.....5K $ </tspan><tspan
         sodipodi:role="line"
         x="1.9898115"
         y="129.07817"
         style="font-size:1.29253304px;text-align:start;text-anchor:start;stroke-width:0.26458332px"
         id="tspan13318">Frais de gestion............5K $</tspan><tspan
         sodipodi:role="line"
         x="1.9898115"
         y="131.01697"
         style="font-size:1.29253304px;text-align:start;text-anchor:start;stroke-width:0.26458332px"
         id="tspan13314">Frais de balyage.......250K $</tspan><tspan
         sodipodi:role="line"
         x="1.9898115"
         y="132.95578"
         style="font-size:1.29253304px;text-align:start;text-anchor:start;stroke-width:0.26458332px"
         id="tspan13328">Produit vaisselle.......135K $</tspan></text>
    <text
       xml:space="preserve"
       style="font-style:normal;font-weight:normal;font-size:2.11666656px;line-height:1;font-family:sans-serif;text-align:center;letter-spacing:0px;word-spacing:0px;text-anchor:middle;fill:#000000;fill-opacity:1;stroke:none;stroke-width:0.26458332px;stroke-linecap:butt;stroke-linejoin:miter;stroke-opacity:1"
       x="10.6748"
       y="138.25"
       id="text13322"><tspan
         sodipodi:role="line"
         id="tspan13320"
         x="10.6748"
         y="138.25"
         style="stroke-width:0.26458332px">TOTAL 410K $</tspan></text>
    <text
       id="text13340"
       y="125.20058"
       x="22.098145"
       style="font-style:normal;font-weight:normal;font-size:1.93879938px;line-height:1;font-family:sans-serif;text-align:start;letter-spacing:0px;word-spacing:0px;text-anchor:start;fill:#000000;fill-opacity:1;stroke:none;stroke-width:0.26458332px;stroke-linecap:butt;stroke-linejoin:miter;stroke-opacity:1"
       xml:space="preserve"><tspan
         id="tspan13338"
         style="font-size:1.29253304px;text-align:start;text-anchor:start;stroke-width:0.26458332px"
         y="126.67361"
         x="22.098145"
         sodipodi:role="line" /></text>
  </g>
</svg>
